<svg xmlns="http://www.w3.org/2000/svg" viewBox="0 0 316 72" width="316" height="72">
	<path id="sekoro " fill="#000000" d="M79.64 58.72C89 58.72 96.38 55 96.38 45.94C96.38 28.24 68.9 36.94 68.9 27.16C68.9 22.36 73.94 21.34 79.64 21.34C85.1 21.34 87.26 22.96 87.68 23.2C90.56 24.82 89.18 26.32 90.14 26.8C91.1 27.28 91.46 26.62 92.12 25.6L95.18 20.86C95.84 19.84 96.26 19 95.48 18.4C94.46 17.62 94.1 19.36 91.88 18.1C91.1 17.62 87.38 15.04 79.64 15.04C68.3 15.04 62 19.42 62.18 27.16C62.6 44.68 89.42 35.98 89.42 45.94C89.42 51.04 84.92 52.24 79.64 52.24C70.88 52.24 68.78 49.42 68.18 48.82C66.8 47.5 67.88 46.48 67.16 45.94C66.38 45.34 65.42 46.24 64.64 47.32L61.94 51.04C61.16 52.12 60.44 53.14 61.34 53.8C62.24 54.46 62.9 53.02 64.76 54.34C65.66 55 69.5 58.72 79.64 58.72ZM104.12 58L135.02 58C135.74 58 136.04 57.58 136.04 56.74L136.04 52.06C136.04 50.92 136.04 49.96 134.96 49.96C133.46 49.96 134.54 52.06 131.54 52.06L113.06 52.06C111.92 52.06 111.26 52 111.26 50.62L111.26 41.08C111.2 40.12 111.8 39.64 112.94 39.64L124.82 39.64C126.56 39.64 126.8 41.44 127.52 41.44C128.36 41.44 128.78 40.96 128.78 39.28L128.78 34.42C128.78 33.1 128.72 32.14 127.64 32.14C126.8 32.14 126.8 33.76 124.82 33.76L112.58 33.76C111.5 33.76 111.2 33.4 111.2 32.08L111.2 23.14C111.2 22.3 111.62 21.94 112.34 21.94L131.06 21.94C134.36 21.94 133.7 23.92 134.9 23.92C136.04 23.92 136.04 22.54 136.04 21.82L136.04 17.32C136.04 16.18 135.26 16 134.54 16L105.8 16C104 16 101.96 15.76 101.96 16.78C101.96 18.76 104.36 17.26 104.36 21.16L104.42 53.44C104.42 56.32 101.78 55.66 101.78 57.28C101.78 58.18 103.58 58 104.12 58ZM143.48 58L151.16 58C153.14 58 153.86 57.94 153.86 57.16C153.86 55.72 151.4 56.38 153.26 53.86L161.72 42.58C162.56 41.5 162.98 41.86 163.76 43.06L170.54 53.86C172.52 56.98 170.3 55.84 170.3 57.22C170.3 57.88 170.9 58 171.8 58L179.06 58C179.96 58 181.7 57.94 181.7 57.28C181.7 55.9 180.56 56.68 178.46 53.68L168.26 37.18C167.54 36.16 167.42 35.56 168.5 34.12L177.8 20.38C179.84 17.68 181.04 18.22 181.04 16.96C181.04 16.06 179.66 16 178.88 16L172.52 16C171.32 16 170.42 16.18 170.42 16.9C170.42 18.22 172.1 17.86 171.26 19.06L151.16 46.78C150.8 47.32 150.08 47.44 150.08 46.48L150.08 20.38C150.08 17.44 151.94 18.04 151.94 16.78C151.94 16.06 151.04 16 149.96 16L143.36 16C142.1 16 141.44 16.12 141.44 16.72C141.44 18.16 143.48 17.2 143.48 20.38L143.54 54.28C143.54 56.5 141.8 55.84 141.8 57.04C141.8 57.94 142.7 58 143.48 58ZM182.3 37.24C182.3 51.64 192.8 58.84 203.42 59.02C214.34 59.2 225.38 51.94 225.38 37.24C225.38 22.48 214.82 15.22 204.14 15.1C193.28 15.04 182.3 22.48 182.3 37.24ZM189.5 37.24C189.5 26.68 196.82 21.46 204.08 21.52C211.22 21.58 218.36 26.8 218.36 37.24C218.36 47.62 210.98 52.78 203.66 52.66C196.52 52.54 189.5 47.38 189.5 37.24ZM230.54 58L238.1 58C239.6 58 240.14 57.7 240.14 57.04C240.14 55.6 237.98 56.02 237.98 53.38L237.98 44.2C237.98 41.92 239 42.04 239.54 42.04L250.76 42.04C252.38 42.04 252.8 42.22 253.22 43.24L257.54 53.38C258.62 55.96 256.28 55.42 256.28 57.1C256.28 57.82 256.82 58 259.22 58L265.04 58C266.06 58 267.02 58 267.02 57.04C267.02 55.42 265.1 55.72 264.38 53.98L259.34 41.92C259.04 41.2 259.1 40.72 259.94 40.18C262.22 38.68 265.52 34.48 265.52 29.68C265.52 20.26 258.32 16 250.52 16L232.34 16C229.82 16 228.98 16.24 228.98 16.96C228.98 18.46 231.26 17.56 231.26 21.52L231.26 53.26C231.26 55.72 229.04 55.78 229.04 57.1C229.04 58 230.06 58 230.54 58ZM240.08 36.04C238.94 36.04 238.04 35.68 238.04 34.6L237.98 24.16C237.98 22.72 238.7 22.36 239.84 22.36L250.52 22.36C256.28 22.36 258.5 25.36 258.5 29.68C258.5 33.46 255.32 36.04 251.36 36.04ZM270.62 37.24C270.62 51.64 281.12 58.84 291.74 59.02C302.66 59.2 313.7 51.94 313.7 37.24C313.7 22.48 303.14 15.22 292.46 15.1C281.6 15.04 270.62 22.48 270.62 37.24ZM277.82 37.24C277.82 26.68 285.14 21.46 292.4 21.52C299.54 21.58 306.68 26.8 306.68 37.24C306.68 47.62 299.3 52.78 291.98 52.66C284.84 52.54 277.82 47.38 277.82 37.24Z" />
	<path id="Layer" class="shp0" fill="#b5ff40" d="M11.86 38.24C3.67 31.59 2.41 19.57 9.06 11.38C15.7 3.19 27.73 1.94 35.92 8.58" />
	<path id="Layer" class="shp1" fill="#144763" d="M10.25 40.22C0.98 32.7 -0.44 19.04 7.08 9.77C14.6 0.51 28.25 -0.91 37.52 6.6C38.61 7.49 38.78 9.1 37.9 10.19C37.01 11.28 35.4 11.45 34.31 10.56C27.23 4.81 16.79 5.9 11.04 12.98C5.29 20.07 6.38 30.51 13.46 36.26C14.55 37.15 14.72 38.75 13.84 39.84C12.95 40.94 11.34 41.1 10.25 40.22Z" />
	<path id="Layer" class="shp2" fill="#87ea06" d="M31.14 33.06C39.33 39.7 40.59 51.73 33.94 59.92C27.3 68.11 15.27 69.36 7.08 62.71" />
	<path id="Layer" class="shp1" fill="#144763" d="M5.48 64.69C4.39 63.8 4.22 62.2 5.1 61.11C5.99 60.01 7.6 59.85 8.69 60.73C15.77 66.48 26.21 65.4 31.96 58.31C37.71 51.23 36.62 40.79 29.54 35.04C28.44 34.15 28.28 32.55 29.16 31.45C30.05 30.36 31.66 30.19 32.75 31.08C42.02 38.6 43.44 52.26 35.92 61.52C28.4 70.79 14.75 72.21 5.48 64.69Z" />
	<path id="Layer" class="shp2" fill="#87ea06" d="M17.67 42.93L21.73 46.22L18.43 50.28" />
	<path id="Layer" class="shp1" fill="#144763" d="M16.83 52.26C15.74 51.37 15.57 49.77 16.46 48.68L18.14 46.59L16.06 44.91C14.97 44.02 14.8 42.41 15.69 41.32C16.58 40.23 18.18 40.06 19.27 40.95L23.33 44.24C24.43 45.13 24.59 46.73 23.71 47.83L20.41 51.89C19.53 52.98 17.92 53.15 16.83 52.26Z" />
	<path id="Layer" class="shp2" fill="#87ea06" d="M25.33 28.37L21.27 25.08L24.57 21.02" />
	<path id="Layer" class="shp1" fill="#144763" d="M23.73 30.35L19.67 27.05C18.57 26.17 18.41 24.56 19.29 23.47L22.59 19.41C23.47 18.32 25.08 18.15 26.17 19.04C27.26 19.92 27.43 21.53 26.54 22.62L24.86 24.7L26.94 26.39C28.03 27.28 28.2 28.88 27.31 29.97C26.42 31.07 24.82 31.23 23.73 30.35Z" />
	<g id="Layer">
		<path id="Layer" class="shp2" fill="#87ea06" d="M17.6 33.88C17.14 33.5 17.07 32.82 17.44 32.36C17.82 31.89 18.5 31.82 18.97 32.2C19.43 32.58 19.5 33.26 19.13 33.72C18.75 34.19 18.07 34.26 17.6 33.88Z" />
		<path id="Layer" class="shp2" fill="#87ea06" d="M20.82 36.49C20.35 36.11 20.28 35.43 20.66 34.97C21.04 34.5 21.72 34.43 22.18 34.81C22.65 35.18 22.72 35.87 22.34 36.33C21.96 36.8 21.28 36.87 20.82 36.49Z" />
		<path id="Layer" class="shp2" fill="#87ea06" d="M24.03 39.1C23.57 38.72 23.5 38.04 23.87 37.57C24.25 37.11 24.93 37.04 25.4 37.42C25.86 37.79 25.93 38.47 25.56 38.94C25.18 39.4 24.5 39.47 24.03 39.1Z" />
	</g>
</svg>