<svg xmlns="http://www.w3.org/2000/svg" viewBox="0 0 283 80" width="283" height="80">
	<path id="Layer" class="shp0" fill="#56ace0" d="M20.96 49.48L27.5 39.61L22.23 39.61L20.96 49.48Z" />
	<path id="Layer" class="shp1" fill="#ffc10d" d="M14.61 9.57L14.47 11.74L21.92 11.74C23.1 11.74 24.07 12.7 24.07 13.89C24.07 15.09 23.11 16.04 21.92 16.04L14.31 16.04C14.26 16.04 14.24 16.03 14.19 16.03L13.93 20.21L18.4 20.21C19.58 20.21 20.54 21.16 20.54 22.36C20.54 23.54 19.59 24.51 18.4 24.51L13.65 24.51L13 34.78L22.91 34.78L31.81 9.59C31.82 9.57 14.61 9.57 14.61 9.57Z" />
	<path id="Layer" fill-rule="evenodd" class="shp2" fill="#194f82" d="M42.96 3.85L33.33 31.03L39.49 31.03C41.24 31.08 42.26 32.95 41.27 34.36L12.8 77.21C11.24 79.27 8.64 77.79 8.9 75.75L13.09 43.32L6.16 43.32C4.97 43.34 3.85 42.23 4.02 41.05L6.43 3.01C6.51 1.88 7.46 1 8.58 1L40.92 1C42.54 1.09 43.4 2.59 42.96 3.85ZM37.91 5.28L10.61 5.28L8.47 39.04L15.56 39.04C16.86 39.1 17.86 40.21 17.68 41.46L14.35 67.16L35.51 35.33L30.31 35.33C28.52 35.48 27.75 33.87 28.29 32.47L37.91 5.28Z" />
	<g id="Layer">
	</g>
	<path id="Xemora " fill="#0d1114" d="M81.94 19.29L95.77 20.93L84.34 40.79L94.07 58.07L81.82 61.88L76.55 49.93L70.34 61.94L57.68 57.37L68.46 40.38L58.62 22.51L72.04 19.29L76.84 31.06L81.94 19.29ZM95.5 21.57L111.09 20.75L109.04 60.65L96.68 61.3L95.5 21.57ZM164.67 42.14Q164.67 46.33 164.41 50.49Q164.15 54.65 163.79 58.84L148.74 59.54Q149.41 54.44 149.94 49.34Q150.49 44.22 150.49 39.09Q150.49 38.77 150.46 37.98Q150.44 37.16 150.35 36.13Q150.29 35.11 150.14 34.02Q150.03 32.91 149.79 32Q149.59 31.06 149.26 30.48Q148.94 29.89 148.5 29.89Q147.48 29.89 146.89 30.68Q146.3 31.44 146.01 32.53Q145.75 33.61 145.69 34.75Q145.63 35.87 145.63 36.57Q145.63 37.8 145.69 39.03Q145.75 40.26 145.75 41.55Q145.75 46.09 145.51 50.6Q145.31 55.12 144.99 59.66L131.1 60.18Q131.77 55.09 132.27 50.02Q132.8 44.92 132.8 39.79Q132.8 39.47 132.77 38.62Q132.74 37.77 132.65 36.72Q132.59 35.66 132.45 34.52Q132.3 33.38 132.07 32.44Q131.86 31.47 131.54 30.86Q131.22 30.24 130.75 30.24Q130.02 30.24 129.52 30.83Q129.02 31.38 128.7 32.29Q128.4 33.2 128.23 34.31Q128.08 35.4 127.99 36.45Q127.94 37.51 127.91 38.42Q127.91 39.29 127.88 39.73L127.23 61.12L112.47 61.12Q112.94 56.17 113.4 51.19Q113.9 46.21 114.25 41.26Q114.63 36.28 114.87 31.3Q115.1 26.32 115.1 21.34L129.05 20.75L128.99 24.15Q129.63 23.33 130.46 22.51Q131.28 21.66 132.18 21.01Q133.12 20.34 134.15 19.93Q135.2 19.52 136.31 19.52Q137.75 19.52 138.89 19.75Q140.04 19.96 140.94 20.49Q141.88 21.01 142.58 21.95Q143.29 22.86 143.81 24.27Q144.75 23.24 145.69 22.36Q146.66 21.48 147.71 20.87Q148.77 20.22 150 19.87Q151.23 19.52 152.72 19.52Q155.56 19.52 157.55 20.63Q159.55 21.72 160.87 23.53Q162.21 25.35 162.95 27.69Q163.71 30.04 164.09 32.56Q164.47 35.08 164.56 37.57Q164.67 40.06 164.67 42.14ZM203.55 39.56Q203.55 42.22 202.94 44.71Q202.32 47.18 201.15 49.34Q200.01 51.51 198.34 53.33Q196.7 55.12 194.62 56.4Q192.56 57.69 190.13 58.43Q187.7 59.13 184.98 59.13Q182.34 59.13 179.94 58.46Q177.56 57.78 175.48 56.58Q173.4 55.35 171.71 53.65Q170.04 51.92 168.83 49.84Q167.66 47.73 166.99 45.33Q166.34 42.93 166.34 40.32Q166.34 37.77 166.96 35.34Q167.57 32.88 168.72 30.71Q169.89 28.54 171.53 26.73Q173.17 24.91 175.19 23.59Q177.24 22.27 179.62 21.54Q181.99 20.81 184.63 20.81Q188.87 20.81 192.36 22.13Q195.88 23.45 198.34 25.91Q200.83 28.34 202.17 31.82Q203.55 35.28 203.55 39.56ZM190.54 40.32Q190.54 39.06 190.16 37.89Q189.81 36.69 189.11 35.78Q188.4 34.84 187.35 34.29Q186.32 33.7 184.98 33.7Q183.6 33.7 182.52 34.2Q181.43 34.7 180.64 35.57Q179.88 36.42 179.47 37.6Q179.06 38.74 179.06 40.03Q179.06 41.26 179.41 42.49Q179.76 43.72 180.46 44.71Q181.17 45.71 182.19 46.33Q183.25 46.94 184.63 46.94Q186 46.94 187.09 46.41Q188.2 45.86 188.96 44.95Q189.72 44.01 190.13 42.81Q190.54 41.61 190.54 40.32ZM239.94 33.76Q239.94 36.04 239.53 37.92Q239.15 39.76 238.3 41.32Q237.45 42.87 236.1 44.19Q234.75 45.51 232.85 46.71L239.82 59.13L226.64 61.71L222.13 49.23L218.49 49.34L217.96 61.53L205.37 61.53Q205.51 54.85 205.63 48.23Q205.78 41.61 205.95 34.93Q206.01 31.56 206.07 28.25Q206.13 24.94 206.3 21.57Q208.36 20.81 210.35 20.31Q212.34 19.81 214.33 19.55Q216.35 19.26 218.4 19.17Q220.48 19.05 222.65 19.05Q225.99 19.05 229.1 19.99Q232.23 20.9 234.63 22.74Q237.04 24.59 238.47 27.34Q239.94 30.1 239.94 33.76ZM226.81 34.7Q226.81 33.46 226.46 32.44Q226.14 31.41 225.46 30.68Q224.82 29.92 223.82 29.51Q222.86 29.07 221.54 29.07Q220.95 29.07 220.4 29.16Q219.84 29.22 219.31 29.36L218.84 40.26L219.55 40.26Q220.81 40.26 222.1 39.94Q223.41 39.62 224.44 38.94Q225.49 38.27 226.14 37.21Q226.81 36.16 226.81 34.7ZM267.48 20.05L278.9 59.48L264.37 61.36L262.61 54.73L255.93 54.73L254.47 61.36L239.53 59.89L251.19 20.87L267.48 20.05ZM257.16 45.77L261.56 45.77L259.33 35.57L257.16 45.77Z" />
</svg>