<svg xmlns="http://www.w3.org/2000/svg" viewBox="0 0 273 62" width="273" height="62">
	<path id="Layer" class="shp0" fill="#d4a8b4" d="M67.35 7.17C63.91 10.86 61.8 15.81 61.8 21.26C61.8 27.5 64.57 33.08 68.93 36.88C73.51 34.75 77.52 31.97 80.67 29.42C85.15 25.78 85.13 18.95 80.65 15.31C77.15 12.47 72.59 9.35 67.35 7.17Z" />
	<g id="Layer">
		<path id="Layer" fill-rule="evenodd" class="shp1" fill="#3c1146" d="M68.93 39.11C68.4 39.11 67.88 38.93 67.46 38.57C62.44 34.21 59.56 27.9 59.56 21.26C59.56 15.45 61.75 9.9 65.72 5.64C66.35 4.96 67.35 4.74 68.21 5.1C72.88 7.05 77.54 9.9 82.06 13.57C84.73 15.74 86.26 18.94 86.26 22.37C86.26 25.8 84.74 29 82.08 31.15C78.1 34.39 73.99 37 69.87 38.91C69.57 39.05 69.25 39.11 68.93 39.11ZM67.97 9.88C65.43 13.12 64.04 17.11 64.04 21.26C64.04 26.12 65.95 30.75 69.34 34.19C72.67 32.51 76 30.33 79.26 27.68C80.86 26.38 81.78 24.44 81.78 22.38C81.78 20.3 80.86 18.36 79.24 17.05C75.53 14.04 71.75 11.63 67.97 9.88Z" />
		<path id="Layer" class="shp1" fill="#3c1146" d="M52.48 42.46C52.38 42.46 52.29 42.46 52.19 42.45C33.88 40.94 19 24.47 18.38 23.77C17.64 22.94 17.62 21.69 18.34 20.84C18.5 20.65 22.39 16.07 28.69 11.45C37.13 5.27 45.9 2 54.06 2C65.4 2 75.41 8.13 81.81 13.27C82.77 14.05 82.92 15.46 82.15 16.42C81.37 17.38 79.96 17.54 79 16.76C73.16 12.07 64.1 6.48 54.06 6.48C39.65 6.48 27.16 18.06 23.12 22.24C26.78 25.86 37.14 35.16 49.25 37.53C45.11 32.77 42.8 27.08 42.8 21.43C42.8 18.92 43.16 16.44 43.88 14.06C44.24 12.88 45.49 12.21 46.67 12.57C47.86 12.93 48.53 14.18 48.17 15.36C47.57 17.32 47.27 19.36 47.27 21.43C47.27 27.05 50.18 32.81 55.26 37.22C55.75 37.64 56.03 38.26 56.03 38.91C56.03 39.9 55.61 40.85 54.88 41.53C54.22 42.13 53.36 42.46 52.48 42.46Z" />
	</g>
	<path id="Layer" class="shp0" fill="#d4a8b4" d="M19.23 22.02C19.23 22.02 19.26 22 19.3 21.95C16.61 21.96 13.05 22.47 10.77 24.74C6.71 28.8 8.27 36.94 8.27 36.94C8.27 36.94 16.41 38.49 20.47 34.44C22.72 32.18 23.24 28.66 23.26 25.98C20.72 23.78 19.23 22.02 19.23 22.02Z" />
	<path id="Layer" fill-rule="evenodd" class="shp1" fill="#3c1146" d="M11.88 39.47C11.88 39.47 11.88 39.47 11.88 39.47C9.62 39.47 7.92 39.15 7.85 39.13C6.95 38.96 6.25 38.26 6.07 37.36C6 36.98 4.35 28 9.19 23.16C11.43 20.92 14.92 19.73 19.29 19.71C20.16 19.72 20.95 20.21 21.32 21C21.89 21.62 23.07 22.86 24.72 24.29C25.22 24.71 25.5 25.34 25.49 25.99C25.47 30.32 24.28 33.79 22.05 36.02C19.2 38.87 14.94 39.47 11.88 39.47ZM10.28 34.93C10.75 34.97 11.29 34.99 11.88 34.99C14.1 34.99 17.12 34.62 18.88 32.86C20.37 31.37 20.87 28.98 20.99 26.96C19.74 25.83 18.79 24.85 18.2 24.22C16.18 24.35 13.83 24.85 12.35 26.33C10.14 28.54 10.11 32.67 10.28 34.93Z" />
	<path id="Layer" class="shp0" fill="#d4a8b4" d="M23.26 18.07C23.24 15.39 22.72 11.87 20.46 9.61C16.41 5.55 8.27 7.11 8.27 7.11C8.27 7.11 6.71 15.24 10.77 19.3C13.05 21.58 16.61 22.09 19.3 22.09C19.26 22.05 19.23 22.02 19.23 22.02C19.23 22.02 20.72 20.27 23.26 18.07Z" />
	<g id="Layer">
		<path id="Layer" fill-rule="evenodd" class="shp1" fill="#3c1146" d="M19.3 24.33C19.29 24.33 19.29 24.33 19.29 24.33C14.92 24.32 11.43 23.13 9.19 20.88C4.35 16.04 6 7.07 6.07 6.69C6.25 5.79 6.95 5.08 7.85 4.91C7.92 4.9 9.62 4.58 11.88 4.58C14.94 4.58 19.2 5.17 22.05 8.02C24.28 10.25 25.47 13.72 25.5 18.05C25.5 18.71 25.22 19.33 24.72 19.76C23.07 21.19 21.89 22.42 21.32 23.04C20.95 23.83 20.16 24.33 19.3 24.33ZM10.27 9.11C10.08 11.64 10.27 15.63 12.35 17.72C13.83 19.19 16.18 19.7 18.2 19.82C18.79 19.19 19.74 18.22 20.99 17.09C20.87 15.06 20.37 12.68 18.88 11.19C17.12 9.42 14.1 9.05 11.88 9.05C11.28 9.05 10.74 9.08 10.27 9.11Z" />
		<path id="Layer" class="shp1" fill="#3c1146" d="M74.84 59.8L17.16 59.8C15.4 59.8 13.74 59.02 12.62 57.67L4.36 47.71C2.89 45.93 2.59 43.53 3.57 41.44C4.55 39.35 6.59 38.05 8.9 38.05L52.46 38.05C53.69 38.05 54.7 39.05 54.7 40.29C54.7 41.53 53.69 42.53 52.46 42.53L8.9 42.53C8.09 42.53 7.73 43.1 7.62 43.34C7.5 43.59 7.29 44.22 7.81 44.85L16.06 54.81C16.34 55.14 16.73 55.32 17.16 55.32L74.84 55.32C75.27 55.32 75.67 55.14 75.94 54.81L84.19 44.85C84.71 44.22 84.5 43.59 84.38 43.34C84.27 43.1 83.91 42.53 83.1 42.53L66.6 42.53C65.36 42.53 64.36 41.53 64.36 40.29C64.36 39.05 65.36 38.05 66.6 38.05L83.1 38.05C85.41 38.05 87.45 39.35 88.43 41.44C89.41 43.53 89.11 45.93 87.64 47.71L79.38 57.67C78.26 59.02 76.6 59.8 74.84 59.8Z" />
		<path id="Fintasy " fill="#170f19" d="M109.36 11.56Q109.18 11.74 109.18 22.42L109.24 41.74Q109.3 44.44 109.3 47.26Q109.3 48.28 109.42 48.7Q109.6 49.06 110.14 49.06Q110.44 49.06 111.34 49.18Q112.24 49.24 113.08 49.24Q115.78 49.24 115.78 48.28Q115.78 46.78 115.72 45.94Q115.6 37.78 115.6 32.86Q115.6 29.62 115.72 29.5Q115.9 29.44 116.26 29.5Q116.68 29.5 117.1 29.5L118.84 29.5Q123.88 29.5 123.88 28.48Q124 27.28 124 26.44Q124 23.56 123.28 23.56L116.62 23.62Q116.14 23.62 115.84 23.38Q115.6 23.08 115.6 22.72Q115.6 22.48 115.54 21.46Q115.54 20.38 115.6 19.42Q115.66 18.52 115.72 18.22Q115.84 17.86 116.14 17.74Q116.5 17.62 117.46 17.5Q117.58 17.5 121.6 17.44Q125.68 17.38 127.18 17.44Q127.96 17.44 128.32 16.72Q128.74 16 128.8 15.28Q129.16 12.76 129.16 12.22Q129.16 11.5 128.92 11.5Q128.62 11.5 124.3 11.44Q119.98 11.38 115.54 11.38Q109.54 11.38 109.36 11.56ZM139.84 49L136.9 49.06Q135.76 49.06 135.34 49L135.04 49.06Q134.32 49.06 134.32 47.92L134.32 23.62L134.32 13.54Q134.38 11.8 134.44 11.44Q134.56 11.02 135.1 11.02Q135.34 11.02 135.7 11.08Q136.12 11.14 136.78 11.14Q136.96 11.14 140.02 11.32Q140.68 11.32 140.68 12.1Q140.56 15.16 140.56 35.62L140.56 46.9Q140.56 47.98 140.44 48.52Q140.32 49 139.84 49ZM153.58 29.98L153.82 29.98L154.18 30.64Q155.2 33.1 158.08 40Q160.96 46.9 161.44 47.92Q161.68 48.4 162.16 48.64Q162.64 48.88 163.06 48.88Q163.48 48.88 163.6 48.88L167.08 48.94Q167.62 48.94 168.1 48.46Q168.64 47.98 168.64 47.14Q168.58 42.94 168.58 24.7Q168.52 18.88 168.52 12.04Q168.52 11.44 168.28 11.26Q168.04 11.02 167.5 11.08Q166.36 11.2 163.12 11.32Q162.16 11.38 161.98 11.62Q161.8 11.8 161.86 12.76Q162.04 18.16 162.04 32.5Q162.04 32.74 161.92 33.34Q161.08 31.66 157.96 23.92Q154.84 16.18 153.4 12.34Q153.28 11.92 152.86 11.74Q152.5 11.5 152.14 11.5Q151.78 11.44 151.66 11.44L148.12 11.38Q147.52 11.38 147.28 11.68Q147.04 11.92 147.04 12.52L147.04 15.52Q147.04 24.28 146.98 34.12Q146.92 43.96 146.92 47.74Q146.92 47.86 147.1 48.28Q147.28 48.7 147.7 49.06Q148.12 49.42 148.72 49.3Q149.14 49.24 149.74 49.18Q150.4 49.12 150.76 49.12Q151.84 49.12 152.32 49.06Q153.04 49 153.28 48.76Q153.58 48.52 153.58 47.8L153.58 34.9L153.58 29.98ZM174.22 17.5L177.52 17.56Q179.32 17.56 180.76 17.44L181.06 17.44Q181.66 17.44 181.66 18.16Q181.6 19.42 181.72 33.46Q181.78 40.18 181.78 47.62Q181.78 48.4 182.02 48.76Q182.32 49.06 182.98 49.06Q185.2 49.06 186.1 49Q187.36 48.94 187.72 48.64Q188.14 48.28 188.14 47.14L188.14 28.24L188.14 18.04Q188.14 17.86 188.26 17.74Q188.44 17.62 188.56 17.62L193.54 17.62Q194.74 17.62 195.16 17.5Q195.64 17.38 195.64 16.96L195.7 11.98Q195.7 11.56 195.28 11.44Q194.86 11.32 193.9 11.32L175.42 11.32Q174.88 11.32 174.34 11.68Q173.86 12.04 173.92 12.76Q173.92 12.82 173.92 13.12Q173.98 13.36 173.98 14.02Q173.98 17.5 174.22 17.5ZM218.08 48.28L213.46 49.54Q213.34 49.6 213.1 49.6Q212.5 49.6 212.26 49.18Q212.02 48.7 212.02 48.46L210.58 40.66Q210.52 40.18 210.28 40.06Q210.04 39.88 209.56 39.94L206.74 39.88Q203.8 39.88 203.74 40.18L203.44 41.5Q203.32 42.1 202.54 45.34Q201.82 48.58 201.58 48.82Q201.28 49.12 199.24 48.46Q197.2 47.8 196.96 47.74Q195.1 47.26 195.46 45.94Q196.06 43.3 200.14 27.7Q204.28 12.1 204.58 11.8Q205.18 11.08 205.84 11.08L208.66 11.02Q209.56 11.02 209.98 11.08Q210.52 11.08 210.7 11.2Q210.94 11.26 211.12 11.62Q211.9 13.66 214.78 27.82Q217.72 41.98 218.62 47.14Q218.68 47.32 218.68 47.56Q218.68 48.1 218.08 48.28ZM205.12 33.76Q205.3 33.94 207.28 33.94Q208.42 33.94 208.84 33.88L208.9 33.88Q209.26 33.88 209.08 33.22Q208.84 31.18 208.36 27.58Q207.94 23.98 207.76 23.32Q207.7 23.26 207.64 23.08Q207.64 22.84 207.46 23.32Q206.98 25.18 206.02 29.38Q205.06 33.58 205.12 33.76ZM229.54 33.46Q229.24 33.16 226.42 33.16L224.02 33.16Q223.54 33.16 223.36 33.28Q223.24 33.4 223.24 33.88L223.24 37.54Q223.24 39.94 223.3 41.2Q223.36 42.94 224.5 44.86Q225.64 46.78 227.8 48.1Q230.02 49.36 233.02 49.36Q237.4 49.36 239.74 46.9Q242.08 44.44 242.8 41.56Q243.58 38.68 243.58 36.64Q243.58 33.58 242.02 31.18Q240.52 28.78 239.02 27.58Q237.58 26.38 235.66 25.12Q235.36 24.94 235 24.82Q234.7 24.64 234.46 24.52Q232.3 23.56 230.92 22.54Q229.6 21.52 229.6 20.02Q229.6 18.04 230.8 17.14Q232 16.24 233.68 16.24Q235 16.24 236.14 17.26Q237.28 18.28 237.76 19.6Q237.76 19.72 238.12 19.78Q238.48 19.84 238.66 19.72Q239.92 19.06 242.32 17.62Q242.98 17.14 242.98 16.9Q242.98 16.66 242.62 16.12Q242.56 16.06 241.84 14.62Q241.18 13.18 238.9 11.74Q236.62 10.24 233.68 10.24Q230.44 10.24 228.04 11.62Q225.64 13 224.38 15.1Q223.12 17.2 223.12 19.3Q223.12 22.18 224.26 24.22Q225.46 26.2 227.08 27.4Q228.7 28.6 231.28 29.98Q234.1 31.54 235.42 32.8Q236.8 34 236.8 35.92Q236.8 38.92 236.14 40.6Q235.54 42.28 233.56 42.28Q231.76 42.28 230.86 40.84Q230.02 39.34 229.84 38.02Q229.78 37.3 229.78 35.62Q229.78 33.64 229.54 33.46ZM259 23.68Q258.7 23.68 253.42 13.54L252.34 11.5Q251.92 10.96 251.32 11.2L248.2 12.94Q247.6 13.3 247.36 13.54Q247.18 13.72 247.18 14.02Q247.18 14.38 247.54 15.1Q248.38 16.84 250.54 20.98Q252.7 25.06 253.96 27.34Q255.7 30.34 255.64 33.88Q255.52 36.58 255.52 47.38Q255.52 48.94 257.08 48.94L260.14 48.94Q260.68 48.94 261.16 48.46Q261.64 47.98 261.58 47.08Q261.58 46.78 261.64 41.5Q261.76 36.22 261.76 32.62Q261.76 30.76 262.6 29.32Q263.98 26.98 270.34 14.86Q270.52 14.5 270.52 14.32Q270.52 13.9 269.98 13.72Q267.7 12.76 265.9 12.16L265.84 12.16Q265.6 12.16 265.36 12.28Q265.12 12.4 265.06 12.58L263.08 16.3Q259.24 23.68 259 23.68Z" />
	</g>
</svg>