<svg xmlns="http://www.w3.org/2000/svg" viewBox="0 0 339 80" width="339" height="80">
	<path id="Layer" fill-rule="evenodd" class="shp0" fill="#000000" d="M38.5 5.28C57.4 5.28 72.72 20.6 72.72 39.5C72.72 48.57 69.11 57.28 62.7 63.7C49.28 77 27.61 76.91 14.31 63.49C1.08 50.15 1.08 28.64 14.31 15.3C20.71 8.87 29.42 5.26 38.5 5.28ZM38.5 3C18.34 3 2 19.34 2 39.5C2 59.66 18.34 76 38.5 76C58.66 76 75 59.66 75 39.5C75 29.82 71.15 20.54 64.31 13.69C57.47 6.83 48.18 2.99 38.5 3Z" />
	<g id="Layer">
		<path id="Layer" class="shp1" fill="#e21b1b" d="M29.28 41.5L38.5 32.28L47.72 41.5L38.5 50.71L29.28 41.5Z" />
		<path id="Layer" class="shp1" fill="#e21b1b" d="M4.4 16.61L13.61 7.39L22.83 16.61L13.61 25.83L4.4 16.61Z" />
		<path id="Layer" class="shp1" fill="#e21b1b" d="M54.17 66.39L63.39 57.18L72.6 66.39L63.39 75.61L54.17 66.39Z" />
		<path id="Layer" class="shp1" fill="#e21b1b" d="M54.17 16.61L63.39 7.39L72.6 16.61L63.39 25.83L54.17 16.61Z" />
		<path id="Layer" class="shp1" fill="#e21b1b" d="M4.4 66.4L13.62 57.18L22.84 66.4L13.62 75.61L4.4 66.4Z" />
	</g>
	<path id="5QUARE " fill="#000000" d="M125.3 47.42Q125.3 53.9 120.98 58.4Q116.66 62.84 110.24 62.84Q108.02 62.84 105.98 62.42Q103.94 61.94 102.56 61.34Q101.24 60.68 100.16 60.02Q99.14 59.36 98.66 58.88L98.18 58.46Q95.9 56.48 95.9 54.98Q95.9 53.24 98.12 50.96Q99.92 48.98 101.72 48.98Q103.28 48.98 105.62 50.9Q106.7 52.16 109.82 52.16Q112.04 52.16 113.3 51.02Q114.62 49.88 114.62 47.84Q114.62 45.86 113.18 44.72Q111.8 43.52 110.06 43.52Q108.2 43.52 107.12 44.6Q105.5 45.98 103.88 45.98Q102.2 45.98 99.98 44.78Q97.94 43.7 97.28 43.04Q96.62 42.32 96.62 41.48Q96.62 41.24 96.74 40.4Q98.24 28.94 99.02 23.24Q99.02 23 99.08 22.64Q99.14 22.28 99.5 21.38Q99.86 20.48 100.34 19.76Q100.88 19.04 101.9 18.5Q102.98 17.9 104.36 17.9Q104.42 17.9 107.18 17.96Q109.94 17.96 113.48 17.96Q117.08 17.96 119.12 17.96Q120.56 17.96 121.22 18.08Q121.88 18.14 122.78 18.62Q123.68 19.1 124.04 20.3Q124.4 21.44 124.4 23.42Q124.4 25.22 124.04 26.3Q123.74 27.38 122.9 27.86Q122.06 28.28 121.4 28.4Q120.8 28.46 119.48 28.46L108.98 28.46Q108.86 29.18 108.38 33.02Q109.04 32.9 110.48 32.9Q116.18 32.9 120.74 37.22Q125.3 41.48 125.3 47.42ZM172.82 52.28Q173.84 53 174.26 53.36Q174.74 53.66 175.22 54.38Q175.7 55.1 175.7 55.88Q175.7 57.32 174.14 59.66Q172.1 62.6 170.24 62.6Q169.1 62.6 166.76 60.98Q166.46 60.8 165.08 59.84Q163.7 58.88 162.92 58.4Q157.34 62.72 150.38 62.72Q141.08 62.72 134.66 56.12Q128.3 49.52 128.3 40.4Q128.3 35.42 130.1 31.1Q131.9 26.72 134.9 23.78Q137.9 20.84 141.8 19.16Q145.7 17.48 149.84 17.48Q158.72 17.48 165.26 23.9Q171.8 30.32 171.8 40.16Q171.8 45.14 169.58 50.06Q171.74 51.5 172.82 52.28ZM150.02 52.1Q154.34 52.1 157.76 48.86Q161.18 45.62 161.18 40.1Q161.18 34.7 157.7 31.4Q154.28 28.1 150.08 28.1Q145.76 28.1 142.34 31.46Q138.92 34.76 138.92 40.16Q138.92 45.44 142.34 48.8Q145.82 52.1 150.02 52.1ZM210.08 17.96Q211.64 17.96 212.66 18.26Q213.68 18.56 214.22 18.98Q214.76 19.4 215 20.24Q215.3 21.08 215.3 21.68Q215.36 22.22 215.36 23.36L215.36 41.48Q215.36 45.32 214.04 49.04Q212.78 52.76 210.38 55.88Q208.04 58.94 204.26 60.86Q200.48 62.72 195.86 62.72Q191.3 62.72 187.52 60.8Q183.8 58.88 181.46 55.82Q179.12 52.7 177.86 48.98Q176.6 45.2 176.6 41.36L176.6 23.3Q176.6 21.86 176.66 21.2Q176.78 20.48 177.26 19.58Q177.74 18.68 178.88 18.32Q180.02 17.96 181.94 17.96Q183.86 17.96 185 18.32Q186.14 18.68 186.56 19.58Q187.04 20.48 187.16 21.2Q187.28 21.92 187.28 23.36L187.28 41.36Q187.28 43.16 187.7 44.9Q188.12 46.58 189.02 48.32Q189.98 50 191.78 51.02Q193.58 52.04 196.04 52.04Q200.42 52.04 202.58 48.8Q204.74 45.56 204.74 41.3L204.74 22.94Q204.74 21.62 204.86 20.96Q204.98 20.24 205.46 19.46Q205.94 18.68 207.08 18.32Q208.22 17.96 210.08 17.96ZM242.54 21.14L258.74 54.62Q259.76 56.66 259.76 57.68Q259.76 59.84 256.28 61.58Q254.24 62.6 252.86 62.6Q251.9 62.6 251.12 62.06Q250.4 61.52 250.04 60.92Q249.74 60.32 249.14 59.12L246.02 52.64L229.4 52.64L226.28 59.12Q225.68 60.32 225.32 60.86Q225.02 61.4 224.24 62Q223.52 62.54 222.56 62.54Q221.18 62.54 219.14 61.52Q215.66 59.84 215.66 57.68Q215.66 56.66 216.68 54.62Q216.68 54.62 232.88 21.08Q233.54 19.7 234.86 18.86Q236.24 18.02 237.74 18.02Q240.98 18.02 242.54 21.14ZM241.7 43.76L237.68 35.54L233.72 43.76L241.7 43.76ZM296.72 54.56Q297.62 56.72 297.62 57.68Q297.62 59.96 293.9 61.52Q291.98 62.36 290.66 62.36Q289.64 62.36 288.86 61.82Q288.14 61.22 287.78 60.62Q287.48 60.02 286.94 58.76Q285.62 55.76 283.1 49.76L281.24 49.88L273.68 49.88L273.68 56.66Q273.68 58.04 273.56 58.76Q273.5 59.42 273.02 60.32Q272.54 61.22 271.4 61.58Q270.26 61.94 268.34 61.94Q266.78 61.94 265.76 61.64Q264.74 61.34 264.2 60.92Q263.66 60.5 263.36 59.72Q263.12 58.88 263.06 58.34Q263.06 57.74 263.06 56.6L263.06 23.3Q263.06 21.92 263.12 21.26Q263.24 20.54 263.72 19.64Q264.2 18.74 265.34 18.38Q266.48 18.02 268.4 18.02L281.36 18.02Q283.88 18.02 286.52 19.04Q289.22 20 291.62 21.86Q294.02 23.72 295.58 26.9Q297.14 30.08 297.14 33.98Q297.14 40.76 292.64 45.14Q293.96 48.32 296.72 54.56ZM273.68 28.64L273.68 39.26L281.36 39.26Q283.1 39.26 284.84 37.94Q286.58 36.62 286.58 33.92Q286.58 31.34 284.84 30.02Q283.1 28.64 281.24 28.64L273.68 28.64ZM311.54 45.32L311.54 51.38L330.02 51.38Q331.4 51.38 332.06 51.5Q332.78 51.56 333.68 52.04Q334.58 52.52 334.94 53.66Q335.3 54.8 335.3 56.72Q335.3 58.28 335 59.3Q334.7 60.32 334.28 60.86Q333.86 61.4 333.02 61.7Q332.24 61.94 331.64 62Q331.1 62 329.96 62L306.2 62Q304.64 62 303.62 61.7Q302.6 61.4 302.06 60.98Q301.52 60.56 301.22 59.78Q300.98 58.94 300.92 58.4Q300.92 57.8 300.92 56.66L300.92 23.3Q300.92 20.24 302.06 19.16Q303.2 18.02 306.38 18.02L330.02 18.02Q331.4 18.02 332.06 18.14Q332.78 18.2 333.68 18.68Q334.58 19.16 334.94 20.3Q335.3 21.44 335.3 23.36Q335.3 24.92 335 25.94Q334.7 26.96 334.28 27.5Q333.86 28.04 333.02 28.34Q332.24 28.58 331.64 28.64Q331.1 28.64 329.96 28.64L311.54 28.64L311.54 34.7L323.42 34.7Q324.8 34.7 325.46 34.82Q326.18 34.88 327.08 35.36Q327.98 35.84 328.34 36.98Q328.7 38.12 328.7 40.04Q328.7 41.6 328.4 42.62Q328.1 43.64 327.68 44.18Q327.26 44.72 326.42 45.02Q325.58 45.26 324.98 45.32Q324.44 45.32 323.3 45.32L311.54 45.32Z" />
</svg>