<?xml version="1.0" encoding="iso-8859-1"?>
<!-- Generator: Adobe Illustrator 19.0.0, SVG Export Plug-In . SVG Version: 6.00 Build 0)  -->
<svg version="1.1" id="Layer_1" xmlns="http://www.w3.org/2000/svg" xmlns:xlink="http://www.w3.org/1999/xlink" x="0px" y="0px"
	 viewBox="0 0 480 480" style="enable-background:new 0 0 480 480;" xml:space="preserve">
<path style="fill:#E66032;" d="M472,112H8V40C8,22.328,22.328,8,40,8h400c17.672,0,32,14.328,32,32V112z"/>
<path style="fill:#F9FBFE;" d="M440,472H40c-17.672,0-32-14.328-32-32V112h464v328C472,457.672,457.672,472,440,472z"/>
<path style="fill:#4D4D4D;" d="M440,0H40C17.944,0,0,17.944,0,40v72v328c0,22.056,17.944,40,40,40h400c22.056,0,40-17.944,40-40V112
	V40C480,17.944,462.056,0,440,0z M16,40c0-13.232,10.768-24,24-24h400c13.232,0,24,10.768,24,24v64H16V40z M464,440
	c0,13.232-10.768,24-24,24H40c-13.232,0-24-10.768-24-24V120h448V440z"/>
<circle style="fill:#FCB641;" cx="60" cy="59.336" r="16.968"/>
<path style="fill:#4D4D4D;" d="M60,84.304c-13.768,0-24.968-11.2-24.968-24.968c0-13.776,11.2-24.976,24.968-24.976
	s24.968,11.2,24.968,24.976C84.968,73.104,73.768,84.304,60,84.304z M60,50.36c-4.944,0-8.968,4.024-8.968,8.976
	c0,4.944,4.024,8.968,8.968,8.968s8.968-4.024,8.968-8.968C68.968,54.384,64.944,50.36,60,50.36z"/>
<circle style="fill:#FCB641;" cx="124" cy="59.336" r="16.968"/>
<path style="fill:#4D4D4D;" d="M124,84.304c-13.768,0-24.968-11.2-24.968-24.968c0-13.776,11.2-24.976,24.968-24.976
	s24.968,11.2,24.968,24.976C148.968,73.104,137.768,84.304,124,84.304z M124,50.36c-4.944,0-8.968,4.024-8.968,8.976
	c0,4.944,4.024,8.968,8.968,8.968s8.968-4.024,8.968-8.968C132.968,54.384,128.944,50.36,124,50.36z"/>
<circle style="fill:#FCB641;" cx="188" cy="59.336" r="16.968"/>
<g>
	<path style="fill:#4D4D4D;" d="M188,84.304c-13.768,0-24.968-11.2-24.968-24.968c0-13.776,11.2-24.976,24.968-24.976
		s24.968,11.2,24.968,24.976C212.968,73.104,201.768,84.304,188,84.304z M188,50.36c-4.944,0-8.968,4.024-8.968,8.976
		c0,4.944,4.024,8.968,8.968,8.968s8.968-4.024,8.968-8.968C196.968,54.384,192.944,50.36,188,50.36z"/>
	<path style="fill:#4D4D4D;" d="M140.224,359.448c-54.752,0-99.296-44.544-99.296-99.296s44.544-99.296,99.296-99.296
		s99.296,44.544,99.296,99.296S194.984,359.448,140.224,359.448z M140.224,176.848c-45.928,0-83.296,37.368-83.296,83.296
		s37.36,83.296,83.296,83.296s83.296-37.36,83.296-83.288S186.16,176.848,140.224,176.848z"/>
</g>
<polygon style="fill:#FCB641;" points="200.368,261.472 152.184,288.312 104,315.144 104,261.472 104,207.8 152.184,234.632 "/>
<g>
	<path style="fill:#4D4D4D;" d="M104,323.152c-1.4,0-2.808-0.368-4.056-1.104c-2.44-1.44-3.944-4.064-3.944-6.896V207.8
		c0-2.832,1.504-5.464,3.944-6.896c2.448-1.432,5.464-1.472,7.952-0.096l96.368,53.672c2.536,1.416,4.112,4.088,4.112,6.992
		c0,2.896-1.568,5.576-4.104,6.992l-96.368,53.68C106.68,322.816,105.336,323.152,104,323.152z M112,221.408v80.136l71.928-40.072
		L112,221.408z"/>
	<path style="fill:#4D4D4D;" d="M232,408H48c-4.416,0-8-3.576-8-8s3.584-8,8-8h184c4.416,0,8,3.576,8,8S236.416,408,232,408z"/>
	<path style="fill:#4D4D4D;" d="M80,416c-4.416,0-8-3.576-8-8v-16c0-4.424,3.584-8,8-8s8,3.576,8,8v16C88,412.424,84.416,416,80,416
		z"/>
</g>
<rect x="280" y="168" style="fill:#FCB641;" width="152" height="72"/>
<g>
	<path style="fill:#4D4D4D;" d="M432,248H280c-4.424,0-8-3.576-8-8v-72c0-4.424,3.576-8,8-8h152c4.424,0,8,3.576,8,8v72
		C440,244.424,436.424,248,432,248z M288,232h136v-56H288V232z"/>
	<path style="fill:#4D4D4D;" d="M432,280H280c-4.424,0-8-3.576-8-8s3.576-8,8-8h152c4.424,0,8,3.576,8,8S436.424,280,432,280z"/>
	<path style="fill:#4D4D4D;" d="M432,312H280c-4.424,0-8-3.576-8-8s3.576-8,8-8h152c4.424,0,8,3.576,8,8S436.424,312,432,312z"/>
	<path style="fill:#4D4D4D;" d="M432,344H280c-4.424,0-8-3.576-8-8s3.576-8,8-8h152c4.424,0,8,3.576,8,8S436.424,344,432,344z"/>
	<path style="fill:#4D4D4D;" d="M432,376H280c-4.424,0-8-3.576-8-8s3.576-8,8-8h152c4.424,0,8,3.576,8,8S436.424,376,432,376z"/>
	<path style="fill:#4D4D4D;" d="M400,408H280c-4.424,0-8-3.576-8-8s3.576-8,8-8h120c4.424,0,8,3.576,8,8S404.424,408,400,408z"/>
</g>
<g>
</g>
<g>
</g>
<g>
</g>
<g>
</g>
<g>
</g>
<g>
</g>
<g>
</g>
<g>
</g>
<g>
</g>
<g>
</g>
<g>
</g>
<g>
</g>
<g>
</g>
<g>
</g>
<g>
</g>
</svg>
