<svg width="100px" height="100px" viewBox="0 0 100 100" xmlns="http://www.w3.org/2000/svg"><title>Ecommerce copia 3</title><polygon points="91.97 47.9 75.97 47.9 75.97 34.9 77.97 34.9 77.97 45.9 91.97 45.9 91.97 47.9" fill="#495771"/><rect x="56.3" y="40.9" width="7" height="7" fill="#9ae3f0"/><rect x="43.3" y="40.9" width="7" height="7" fill="#9ae3f0"/><rect x="30.3" y="40.9" width="7" height="7" fill="#9ae3f0"/><rect x="16.3" y="40.9" width="7" height="7" fill="#9ae3f0"/><path d="M35.55,61.86H17.42L3.75,51.36V19.42a3,3,0,0,1,5-2.19l16.16,14.9-0.64.78-0.71.71L7.43,18.7a1,1,0,0,0-1.67.72V50.37l12.34,9.49H35.55v2Z" fill="#495771"/><path d="M89.18,61.86H57.05v-2H89.18A6,6,0,0,0,93,49.24L74.49,33.86H4.75v-2H75.22L94.29,47.71A8,8,0,0,1,89.18,61.86Z" fill="#495771"/><path d="M35.8,83.57a8.4,8.4,0,0,1-7.14-12.86L38.92,54.23H64.05L43.63,79.81A10,10,0,0,1,35.8,83.57ZM40,56.23L30.36,71.77a6.28,6.28,0,0,0-1,3.37,6.44,6.44,0,0,0,6.42,6.43,8,8,0,0,0,6.26-3L59.9,56.23H40Z" fill="#495771"/><rect x="6.8" y="78.9" width="16" height="2" fill="#495771"/><rect x="2.8" y="68.9" width="20" height="2" fill="#495771"/><rect width="100" height="100" fill="none"/></svg>