<?xml version="1.0" encoding="iso-8859-1"?>
<!-- Generator: Adobe Illustrator 19.0.0, SVG Export Plug-In . SVG Version: 6.00 Build 0)  -->
<svg version="1.1" id="Layer_1" xmlns="http://www.w3.org/2000/svg" xmlns:xlink="http://www.w3.org/1999/xlink" x="0px" y="0px"
	 viewBox="0 0 480 480" style="enable-background:new 0 0 480 480;" xml:space="preserve">
<rect x="131.712" y="123.721" transform="matrix(-0.7071 0.7071 -0.7071 -0.7071 433.8687 179.7257)" style="fill:#FFFFFF;" width="95.999" height="111.999"/>
<path style="fill:#F5B945;" d="M343.768,309.824l-33.944,33.944c-9.376,9.376-24.568,9.376-33.944,0l-90.504-90.512l67.88-67.88
	l90.512,90.512C353.136,285.256,353.136,300.448,343.768,309.824z"/>
<path style="fill:#FADDA6;" d="M343.768,309.824l-33.944,33.944l30.488,30.488c9.376,9.376,24.568,9.376,33.944,0l0,0
	c9.376-9.376,9.376-24.568,0-33.944L343.768,309.824z"/>
<path style="fill:#EB805B;" d="M174.056,106.176l-67.88,67.88c-9.376,9.376-24.568,9.376-33.944,0l0,0
	c-9.376-9.376-9.376-24.568,0-33.944l67.88-67.88c9.376-9.376,24.568-9.376,33.944,0l0,0
	C183.432,81.608,183.432,96.808,174.056,106.176z"/>
<path style="fill:#E66032;" d="M140.12,72.232l-67.88,67.88L26.984,94.856c-18.744-18.744-18.744-49.136,0-67.88l0,0
	c18.744-18.744,49.136-18.744,67.88,0L140.12,72.232z"/>
<path style="fill:#4D4D4D;" d="M379.904,334.656l-25.624-25.624c2.872-4.864,4.52-10.376,4.52-16.176
	c0-8.544-3.328-16.584-9.376-22.624L184.568,105.368c7.192-12.256,5.656-28.28-4.848-38.792c-10.52-10.512-26.536-12.056-38.8-4.856
	l-40.408-40.4C89.936,10.744,75.88,4.92,60.92,4.92s-29.016,5.824-39.592,16.4S4.92,45.96,4.92,60.92s5.832,29.016,16.408,39.6
	l40.392,40.4c-2.872,4.864-4.52,10.376-4.52,16.176c0,8.544,3.328,16.584,9.376,22.624c6.24,6.24,14.432,9.352,22.624,9.352
	c5.616,0,11.184-1.576,16.176-4.504l164.848,164.856c6.048,6.04,14.08,9.368,22.624,9.368c5.8,0,11.304-1.648,16.168-4.512
	l25.632,25.632c6.04,6.04,14.08,9.368,22.624,9.368s16.576-3.328,22.624-9.368s9.376-14.08,9.376-22.632
	C389.28,348.728,385.952,340.696,379.904,334.656z M20.92,60.92c0-10.68,4.168-20.728,11.72-28.288S50.24,20.92,60.92,20.92
	s20.728,4.16,28.28,11.712l39.6,39.6L72.232,128.8L32.64,89.2C25.088,81.656,20.92,71.608,20.92,60.92z M77.888,168.4
	c-3.024-3.024-4.688-7.04-4.688-11.312s1.664-8.296,4.688-11.32l67.88-67.88c3.12-3.12,7.216-4.672,11.32-4.672
	c4.096,0,8.192,1.56,11.312,4.672c6.232,6.24,6.232,16.392,0,22.632l-67.88,67.88C94.296,174.632,84.136,174.64,77.888,168.4z
	 M174.064,117.488l67.88,67.88l-56.568,56.568l-67.88-67.88L174.064,117.488z M281.536,338.112l-84.848-84.856l56.568-56.568
	l84.848,84.856c3.024,3.024,4.688,7.04,4.688,11.312s-1.664,8.296-4.688,11.32L304.16,338.12
	C298.12,344.152,287.584,344.152,281.536,338.112z M368.592,368.592c-6.048,6.04-16.576,6.04-22.624,0l-24.832-24.824l11.312-11.312
	l11.32-11.312l24.832,24.832c3.024,3.024,4.688,7.04,4.688,11.312C373.28,361.552,371.616,365.568,368.592,368.592z"/>
<path style="fill:#ED7765;" d="M368,112h-16V96c0-4.416-3.576-8-8-8s-8,3.584-8,8v16h-16c-4.424,0-8,3.584-8,8s3.576,8,8,8h16v16
	c0,4.416,3.576,8,8,8s8-3.584,8-8v-16h16c4.424,0,8-3.584,8-8S372.424,112,368,112z"/>
<path style="fill:#FCB641;" d="M440,48c-13.232,0-24-10.768-24-24s10.768-24,24-24s24,10.768,24,24S453.232,48,440,48z M440,16
	c-4.416,0-8,3.592-8,8s3.584,8,8,8s8-3.592,8-8S444.416,16,440,16z"/>
<rect x="104" y="416" style="fill:#EB805B;" width="96" height="56"/>
<rect x="8" y="416" style="fill:#E66032;" width="96" height="56"/>
<rect x="280" y="416" style="fill:#F7C76A;" width="96" height="56"/>
<rect x="200" y="416" style="fill:#F5B945;" width="80" height="56"/>
<rect x="376" y="416" style="fill:#FADDA6;" width="96" height="56"/>
<path style="fill:#4D4D4D;" d="M472,408H8c-4.424,0-8,3.584-8,8v56c0,4.416,3.576,8,8,8h464c4.424,0,8-3.584,8-8v-56
	C480,411.584,476.424,408,472,408z M16,424h80v40H16V424z M112,424h80v40h-80V424z M208,424h64v40h-64V424z M288,424h80v40h-80V424z
	 M464,464h-80v-40h80V464z"/>
<path style="fill:#FCB641;" d="M56,384c-2.64,0-5.112-1.296-6.6-3.48l-32-46.752c-1.072-1.568-1.512-3.384-1.376-5.144
	C16.008,328.416,16,328.208,16,328c0-4.416,3.576-8,8-8h64c2.952,0,5.664,1.624,7.056,4.224s1.24,5.76-0.4,8.208l-32,48
	c-1.48,2.216-3.952,3.568-6.608,3.568C56.032,384,56.016,384,56,384z M38.312,336l17.6,25.712L73.056,336H38.312z"/>
<g>
</g>
<g>
</g>
<g>
</g>
<g>
</g>
<g>
</g>
<g>
</g>
<g>
</g>
<g>
</g>
<g>
</g>
<g>
</g>
<g>
</g>
<g>
</g>
<g>
</g>
<g>
</g>
<g>
</g>
</svg>
