<?xml version="1.0" encoding="iso-8859-1"?>
<!-- Generator: Adobe Illustrator 19.0.0, SVG Export Plug-In . SVG Version: 6.00 Build 0)  -->
<svg version="1.1" id="Layer_1" xmlns="http://www.w3.org/2000/svg" xmlns:xlink="http://www.w3.org/1999/xlink" x="0px" y="0px"
	 viewBox="0 0 480 480" style="enable-background:new 0 0 480 480;" xml:space="preserve">
<ellipse style="fill:#FFFFFF;" cx="240.64" cy="238.92" rx="179.336" ry="113.584"/>
<path style="fill:#4D4D4D;" d="M240.664,360.496c-103.304,0-187.336-54.544-187.336-121.584s84.04-121.584,187.336-121.584
	S428,171.872,428,238.912C428,305.96,343.968,360.496,240.664,360.496z M240.664,133.336c-94.48,0-171.336,47.368-171.336,105.584
	s76.864,105.584,171.336,105.584S412,297.136,412,238.92S335.144,133.336,240.664,133.336z"/>
<circle style="fill:#E66032;" cx="239.752" cy="239.744" r="72.92"/>
<g>
	<path style="fill:#4D4D4D;" d="M239.752,320.664c-44.616,0-80.92-36.304-80.92-80.92s36.304-80.912,80.92-80.912
		s80.912,36.296,80.912,80.912S284.368,320.664,239.752,320.664z M239.752,174.832c-35.8,0-64.92,29.12-64.92,64.912
		c0,35.8,29.12,64.92,64.92,64.92c35.792,0,64.912-29.12,64.912-64.92C304.664,203.952,275.544,174.832,239.752,174.832z"/>
	<path style="fill:#4D4D4D;" d="M240,104c-4.416,0-8-3.584-8-8V48c0-4.416,3.584-8,8-8c4.416,0,8,3.584,8,8v48
		C248,100.416,244.416,104,240,104z"/>
	<path style="fill:#4D4D4D;" d="M240,24c-4.416,0-8-3.584-8-8V8c0-4.416,3.584-8,8-8c4.416,0,8,3.584,8,8v8
		C248,20.416,244.416,24,240,24z"/>
	<path style="fill:#4D4D4D;" d="M379.232,136.768c-2.048,0-4.096-0.784-5.656-2.344c-3.128-3.128-3.128-8.184,0-11.312
		l45.256-45.256c3.128-3.128,8.184-3.128,11.312,0s3.128,8.184,0,11.312l-45.256,45.256
		C383.328,135.992,381.28,136.768,379.232,136.768z"/>
	<path style="fill:#4D4D4D;" d="M447.112,68.888c-2.048,0-4.096-0.784-5.656-2.344c-3.128-3.128-3.128-8.184,0-11.312l5.656-5.656
		c3.128-3.128,8.184-3.128,11.312,0s3.128,8.184,0,11.312l-5.656,5.656C451.208,68.104,449.16,68.888,447.112,68.888z"/>
	<path style="fill:#4D4D4D;" d="M100.768,136.768c-2.048,0-4.096-0.784-5.656-2.344L49.856,89.168
		c-3.128-3.128-3.128-8.184,0-11.312s8.184-3.128,11.312,0l45.256,45.256c3.128,3.128,3.128,8.184,0,11.312
		C104.864,135.992,102.816,136.768,100.768,136.768z"/>
	<path style="fill:#4D4D4D;" d="M32.888,68.888c-2.048,0-4.096-0.784-5.656-2.344l-5.656-5.656c-3.128-3.128-3.128-8.184,0-11.312
		s8.184-3.128,11.312,0l5.656,5.656c3.128,3.128,3.128,8.184,0,11.312C36.984,68.104,34.936,68.888,32.888,68.888z"/>
	<path style="fill:#4D4D4D;" d="M240,440c-4.416,0-8-3.584-8-8v-48c0-4.416,3.584-8,8-8c4.416,0,8,3.584,8,8v48
		C248,436.416,244.416,440,240,440z"/>
	<path style="fill:#4D4D4D;" d="M240,480c-4.416,0-8-3.584-8-8v-8c0-4.416,3.584-8,8-8c4.416,0,8,3.584,8,8v8
		C248,476.416,244.416,480,240,480z"/>
	<path style="fill:#4D4D4D;" d="M424.488,405.256c-2.048,0-4.096-0.784-5.656-2.344l-45.256-45.256
		c-3.128-3.128-3.128-8.184,0-11.312s8.184-3.128,11.312,0l45.256,45.256c3.128,3.128,3.128,8.184,0,11.312
		C428.576,404.472,426.528,405.256,424.488,405.256z"/>
	<path style="fill:#4D4D4D;" d="M452.768,433.536c-2.048,0-4.096-0.784-5.656-2.344l-5.656-5.656c-3.128-3.128-3.128-8.184,0-11.312
		s8.184-3.128,11.312,0l5.656,5.656c3.128,3.128,3.128,8.184,0,11.312C456.864,432.76,454.816,433.536,452.768,433.536z"/>
	<path style="fill:#4D4D4D;" d="M55.512,405.256c-2.048,0-4.096-0.784-5.656-2.344c-3.128-3.128-3.128-8.184,0-11.312l45.256-45.256
		c3.128-3.128,8.184-3.128,11.312,0s3.128,8.184,0,11.312l-45.256,45.256C59.608,404.472,57.56,405.256,55.512,405.256z"/>
	<path style="fill:#4D4D4D;" d="M27.232,433.536c-2.048,0-4.096-0.784-5.656-2.344c-3.128-3.128-3.128-8.184,0-11.312l5.656-5.656
		c3.128-3.128,8.184-3.128,11.312,0s3.128,8.184,0,11.312l-5.656,5.656C31.328,432.76,29.28,433.536,27.232,433.536z"/>
	<path style="fill:#4D4D4D;" d="M32,248H8c-4.416,0-8-3.584-8-8s3.584-8,8-8h24c4.416,0,8,3.584,8,8C40,244.416,36.416,248,32,248z"
		/>
	<path style="fill:#4D4D4D;" d="M472,248h-24c-4.416,0-8-3.584-8-8s3.584-8,8-8h24c4.416,0,8,3.584,8,8
		C480,244.416,476.416,248,472,248z"/>
	<path style="fill:#4D4D4D;" d="M264,272c-2.08,0-4.16-0.88-5.68-2.32c-0.72-0.8-1.28-1.68-1.68-2.64c-0.4-0.96-0.64-2-0.64-3.04
		c0-2.08,0.88-4.16,2.32-5.68c3.04-2.96,8.4-2.96,11.36,0c1.44,1.52,2.32,3.6,2.32,5.68c0,1.04-0.24,2.08-0.64,3.04
		c-0.4,0.96-0.96,1.84-1.68,2.64C268.16,271.12,266.08,272,264,272z"/>
</g>
<circle style="fill:#F0A084;" cx="252.712" cy="218.96" r="20.04"/>
<path style="fill:#4D4D4D;" d="M252.704,247c-15.464,0-28.04-12.576-28.04-28.04s12.576-28.04,28.04-28.04s28.04,12.576,28.04,28.04
	C280.752,234.424,268.168,247,252.704,247z M252.704,206.92c-6.64,0-12.04,5.4-12.04,12.04s5.4,12.04,12.04,12.04
	s12.04-5.4,12.04-12.04C264.752,212.32,259.344,206.92,252.704,206.92z"/>
<g>
</g>
<g>
</g>
<g>
</g>
<g>
</g>
<g>
</g>
<g>
</g>
<g>
</g>
<g>
</g>
<g>
</g>
<g>
</g>
<g>
</g>
<g>
</g>
<g>
</g>
<g>
</g>
<g>
</g>
</svg>
