<svg xmlns="http://www.w3.org/2000/svg" viewBox="0 0 280 79" width="280" height="79">
	<path fill="#fff" d="M105.59 73.27L93.93 77.22L83.22 50.9L78.89 56.64L78.89 76L65.73 76L65.73 7.19L78.89 5.5L78.89 40.47L92.34 23.08L106.62 23.08L91.77 42.16L105.59 73.27ZM125.99 15.75L112.83 16.31L112.83 2.68L125.99 1.74L125.99 15.75ZM125.89 75.44L112.73 76.56L112.73 24.21L125.89 23.08L125.89 75.44ZM137.46 76.56L137.46 24.21L150.62 23.08L150.62 29.85Q154.66 26.27 158.51 24.39Q162.46 22.42 165.75 22.42Q170.73 22.42 173.83 26.09Q177.03 29.66 177.03 35.77L177.03 75.44L163.87 76.56L163.87 40.75Q163.87 33.7 159.08 33.7Q157.48 33.7 155.5 34.64Q153.62 35.58 150.62 37.37L150.62 75.44L137.46 76.56ZM188.12 76.56L188.12 24.21L201.28 23.08L201.28 29.85Q205.32 26.27 209.18 24.39Q213.13 22.42 216.42 22.42Q221.4 22.42 224.5 26.09Q227.7 29.66 227.7 35.77L227.7 75.44L214.54 76.56L214.54 40.75Q214.54 33.7 209.74 33.7Q208.14 33.7 206.17 34.64Q204.29 35.58 201.28 37.37L201.28 75.44L188.12 76.56ZM250.16 77.22Q244.99 77.22 241.7 73.65Q238.41 69.98 238.41 63.87L238.41 24.21L251.57 23.08L251.57 58.52Q251.57 62.28 252.79 63.97Q254.02 65.57 256.55 65.57Q258.53 65.57 260.78 64.63Q263.04 63.59 264.83 61.43L264.83 24.21L278.08 23.08L278.08 75.44L264.83 76.56L264.83 69.8Q261.54 73.56 257.59 75.44Q253.73 77.22 250.16 77.22Z" />
	<path class="shp0" fill="#ffb07a" d="M24 60C11.83 60 2 50.17 2 38C2 25.83 11.83 16 24 16C36.17 16 46 25.83 46 38C46 50.17 36.17 60 24 60Z" />
	<path class="shp1" fill="#ff6800" d="M24 69C11.83 69 2 59.17 2 47C2 34.83 11.83 25 24 25C36.17 25 46 34.83 46 47C46 59.17 36.17 69 24 69Z" />
</svg>