<svg xmlns="http://www.w3.org/2000/svg" viewBox="0 0 271 57" width="271" height="57">
	<path fill="#27324d" aria-label="moru"  d="M133.94 51L115.8 51L116.74 26.09Q116.74 20.36 112.32 20.36Q110.26 20.36 107.91 21.58L107.62 31.26L108.38 51L90.23 51L91.17 26.09Q91.17 20.36 86.66 20.36Q84.5 20.36 82.15 21.67L82.15 31.26L82.9 51L64.76 51L65.61 33.14L64.95 7.67L82.15 6.44L82.15 13.02L82.81 13.02Q87.79 8.04 93.81 6.07Q98.98 6.07 102.36 7.85Q105.84 9.64 107.15 13.02L107.62 13.02Q112.51 8.23 119.47 6.07Q126.42 6.07 130.09 9.26Q133.76 12.46 133.66 18.48L133.29 31.26L133.94 51ZM161.67 5.5Q172.2 5.5 177.56 11.14Q182.92 16.78 182.92 27.78Q182.92 39.81 177.09 46.02Q171.36 52.13 160.08 52.13Q149.55 52.13 144.19 46.58Q138.83 40.94 138.83 30.04Q138.83 17.91 144.57 11.71Q150.39 5.5 161.67 5.5ZM160.36 17.82Q158.48 17.82 157.54 18.57Q156.6 19.23 156.22 21.11Q155.94 22.99 155.94 26.84Q155.94 32.58 156.32 35.4Q156.79 38.12 157.91 39.25Q159.04 40.28 161.39 40.28Q163.27 40.28 164.12 39.63Q165.06 38.87 165.34 36.99Q165.72 35.02 165.72 31.17Q165.72 25.53 165.25 22.8Q164.87 19.98 163.74 18.95Q162.61 17.82 160.36 17.82ZM217.23 6.54Q218.45 6.54 219.39 6.73L219.39 23.18L217.6 23.74Q216.38 22.99 214.22 22.99Q212.15 22.99 209.8 23.93Q207.55 24.87 205.57 26.56L205.57 31.26L206.32 51L187.99 51L188.84 33.14L188.18 7.67L205.57 6.44L205.57 14.72L206.42 14.72Q210.46 6.54 217.23 6.54ZM268.65 38.78L269.77 39.72L268.18 49.12Q263.66 52.03 258.78 51.94Q253.32 50.81 250.88 44.04L249.75 44.04Q247.12 46.96 244.58 48.84Q242.04 50.62 238.94 51.56Q231.99 51.56 228.13 48.37Q224.37 45.17 224.37 39.16L224.65 29.47L224.09 7.67L241.48 6.44L241.48 31.92Q241.48 34.74 242.42 35.96Q243.36 37.09 245.33 37.09Q246.56 37.09 247.4 36.81Q248.34 36.43 249.38 35.68L249.38 7.67L266.77 6.44L265.73 37.09Q265.73 38.12 266.01 38.59Q266.39 39.06 267.05 39.06Q267.71 39.06 268.65 38.78Z" />
	<path fill="#ffb07a" d="M25 46C12.83 46 3 36.17 3 24C3 11.83 12.83 2 25 2C37.17 2 47 11.83 47 24C47 36.17 37.17 46 25 46Z" />
	<path fill="#ff6800" d="M25 55C12.83 55 3 45.17 3 33C3 20.83 12.83 11 25 11C37.17 11 47 20.83 47 33C47 45.17 37.17 55 25 55Z" />
</svg>