<?xml version="1.0" encoding="iso-8859-1"?>
<!-- Generator: Adobe Illustrator 19.0.0, SVG Export Plug-In . SVG Version: 6.00 Build 0)  -->
<svg version="1.1" id="Layer_1" xmlns="http://www.w3.org/2000/svg" xmlns:xlink="http://www.w3.org/1999/xlink" x="0px" y="0px"
	 viewBox="0 0 480 480" style="enable-background:new 0 0 480 480;" xml:space="preserve">
<path style="fill:#F5B945;" d="M456,208h-96V24c0-8.84,7.16-16,16-16h64c8.84,0,16,7.16,16,16V208z"/>
<g>
	<path style="fill:#4D4D4D;" d="M440,0h-64c-13.232,0-24,10.768-24,24v184c0,4.416,3.576,8,8,8h96c4.424,0,8-3.584,8-8V24
		C464,10.768,453.232,0,440,0z M448,200h-80v-16h24c4.424,0,8-3.584,8-8s-3.576-8-8-8h-24v-32h16c4.424,0,8-3.584,8-8s-3.576-8-8-8
		h-16V88h24c4.424,0,8-3.584,8-8s-3.576-8-8-8h-24V24c0-4.408,3.584-8,8-8h64c4.416,0,8,3.592,8,8V200z"/>
	<circle style="fill:#4D4D4D;" cx="406.592" cy="39.808" r="8.192"/>
</g>
<path style="fill:#FCB641;" d="M48,136h64V24c0-8.84-7.16-16-16-16H64c-8.84,0-16,7.16-16,16V136z"/>
<rect x="48" y="136" style="fill:#FFFFFF;" width="64" height="32"/>
<rect x="48" y="168" style="fill:#FCB641;" width="64" height="40"/>
<path style="fill:#4D4D4D;" d="M96,0H64C50.768,0,40,10.768,40,24H16c-4.416,0-8,3.584-8,8v136c0,4.416,3.584,8,8,8s8-3.584,8-8V40
	h16v96v32v40c0,4.416,3.584,8,8,8h64c4.416,0,8-3.584,8-8v-40v-32V24C120,10.768,109.232,0,96,0z M56,144h48v16H56V144z M56,24
	c0-4.408,3.592-8,8-8h32c4.408,0,8,3.592,8,8v104H56V24z M104,200H56v-24h48V200z"/>
<path style="fill:#FFFFFF;" d="M312,8h-72c-8.84,0-16,7.16-16,16v136h104V24C328,15.16,320.84,8,312,8z"/>
<rect x="224" y="160" style="fill:#FCB641;" width="104" height="48"/>
<polygon style="fill:#FFFFFF;" points="328,160 224,160 224,136 252.368,104 299.632,104 328,136 "/>
<polygon style="fill:#F5B945;" points="296,104 256,104 256,44 296,69.336 "/>
<path style="fill:#4D4D4D;" d="M312,0h-72c-13.232,0-24,10.768-24,24v112v24v48c0,4.416,3.584,8,8,8h104c4.424,0,8-3.584,8-8v-48
	v-24V24C336,10.768,325.232,0,312,0z M232,139.032L255.968,112H256h40h0.032L320,139.032V152h-88V139.032z M288,96h-24V58.528
	l24,15.2V96z M240,16h72c4.416,0,8,3.592,8,8v90.92l-14.384-16.224c-0.456-0.512-1.056-0.816-1.616-1.192V69.336
	c0-2.744-1.408-5.296-3.72-6.76l-40-25.336c-2.464-1.56-5.584-1.664-8.144-0.248C249.584,38.392,248,41.08,248,44v53.504
	c-0.56,0.376-1.168,0.68-1.624,1.192L232,114.912V24C232,19.592,235.592,16,240,16z M320,200h-88v-32h88V200z"/>
<g>
	<rect x="168" y="88" style="fill:#FCB641;" width="24" height="120"/>
	<rect x="144" y="88" style="fill:#FCB641;" width="24" height="120"/>
	<polygon style="fill:#FCB641;" points="176,8 159.336,8 151.336,48 184,48 	"/>
</g>
<polygon style="fill:#FFFFFF;" points="151.336,48 143.336,88 192,88 184,48 "/>
<path style="fill:#4D4D4D;" d="M199.824,87.144c-0.024-0.24,0.064-0.472,0.016-0.712l-8-40l-8-40C183.096,2.688,179.816,0,176,0
	h-16.664c-3.816,0-7.096,2.688-7.84,6.432l-8,40l-8,40c-0.304,1.496-0.024,2.968,0.512,4.368V208c0,4.416,3.584,8,8,8h24h24
	c4.416,0,8-3.584,8-8V88C200,87.696,199.856,87.44,199.824,87.144z M168,80h-14.912l4.8-24h19.552l4.8,24H168z M165.888,16h3.552
	l4.8,24h-13.152L165.888,16z M152,96h8v104h-8V96z M184,200h-8V96h8V200z"/>
<polygon style="fill:#E66032;" points="440,472 40,472 24,400 24,272 456,272 456,400 "/>
<path style="fill:#4D4D4D;" d="M440,480H40c-3.752,0-7-2.608-7.808-6.264l-16-72C16.064,401.168,16,400.584,16,400V272
	c0-4.416,3.584-8,8-8h432c4.424,0,8,3.584,8,8v128c0,0.584-0.064,1.168-0.184,1.736l-16,72C446.992,477.392,443.752,480,440,480z
	 M46.416,464h387.168L448,399.12V280H32v119.12L46.416,464z"/>
<g>
	<rect x="8" y="208" style="fill:#EB805B;" width="464" height="64"/>
	<rect x="16" y="336" style="fill:#EB805B;" width="448" height="64"/>
</g>
<path style="fill:#4D4D4D;" d="M472,200H8c-4.416,0-8,3.584-8,8v64c0,4.416,3.584,8,8,8h56v48H16c-4.416,0-8,3.584-8,8v64
	c0,4.416,3.584,8,8,8h448c4.424,0,8-3.584,8-8v-64c0-4.416-3.576-8-8-8h-48v-48h56c4.424,0,8-3.584,8-8v-64
	C480,203.584,476.424,200,472,200z M80,280h32v48H80V280z M160,280v48h-32v-48H160z M208,280v48h-32v-48H208z M256,280v48h-32v-48
	H256z M304,280v48h-32v-48H304z M352,280v48h-32v-48H352z M456,344v48H24v-48H456z M400,328h-32v-48h32V328z M464,264H16v-48h448
	V264z"/>
<g>
</g>
<g>
</g>
<g>
</g>
<g>
</g>
<g>
</g>
<g>
</g>
<g>
</g>
<g>
</g>
<g>
</g>
<g>
</g>
<g>
</g>
<g>
</g>
<g>
</g>
<g>
</g>
<g>
</g>
</svg>
