<?xml version="1.0" encoding="iso-8859-1"?>
<!-- Generator: Adobe Illustrator 19.0.0, SVG Export Plug-In . SVG Version: 6.00 Build 0)  -->
<svg version="1.1" id="Layer_1" xmlns="http://www.w3.org/2000/svg" xmlns:xlink="http://www.w3.org/1999/xlink" x="0px" y="0px"
	 viewBox="0 0 480 480" style="enable-background:new 0 0 480 480;" xml:space="preserve">
<rect x="8" y="144" style="fill:#E66032;" width="464" height="240"/>
<path style="fill:#FFFFFF;" d="M240,80l-32,16H24c-8.84,0-16,7.16-16,16v32h215h249V96c0-8.84-7.16-16-16-16H240z"/>
<circle style="fill:#FCB641;" cx="241.6" cy="263.416" r="83.416"/>
<g>
	<circle style="fill:#FFFFFF;" cx="241.6" cy="263.416" r="45.416"/>
	<path style="fill:#FFFFFF;" d="M241.584,247c9.064,0,16.416,7.352,16.416,16.416c0,9.064-7.352,16.416-16.416,16.416"/>
	<path style="fill:#FFFFFF;" d="M456,416H24c-8.84,0-16-7.16-16-16v-16h464v16C472,408.84,464.84,416,456,416z"/>
	<path style="fill:#FFFFFF;" d="M424,264h-48c-8.84,0-16-7.16-16-16l0,0c0-8.84,7.16-16,16-16h48c8.84,0,16,7.16,16,16l0,0
		C440,256.84,432.84,264,424,264z"/>
</g>
<circle style="fill:#E66032;" cx="373.496" cy="248" r="16"/>
<g>
	<path style="fill:#4D4D4D;" d="M456,72h-72v-8c0-4.424-3.584-8-8-8s-8,3.576-8,8v8h-64v-8c0-4.424-3.584-8-8-8s-8,3.576-8,8v8h-48
		c-1.24,0-2.472,0.288-3.576,0.84L206.112,88H184v-8c0-4.424-3.584-8-8-8h-24c-4.416,0-8,3.576-8,8v8h-32v-8c0-4.424-3.584-8-8-8H48
		c-4.416,0-8,3.576-8,8v8H24C10.768,88,0,98.768,0,112v32v240v16c0,13.232,10.768,24,24,24h432c13.232,0,24-10.768,24-24v-16V144V96
		C480,82.768,469.232,72,456,72z M16,152h448v224H16V152z M16,112c0-4.416,3.592-8,8-8h184c1.24,0,2.472-0.288,3.576-0.84
		L241.888,88H456c4.408,0,8,3.584,8,8v40H16V112z M464,400c0,4.416-3.592,8-8,8H24c-4.408,0-8-3.584-8-8v-8h448V400z"/>
	<path style="fill:#4D4D4D;" d="M241.584,172c-50.408,0-91.416,41.008-91.416,91.424c0,50.408,41.008,91.416,91.416,91.416
		S333,313.832,333,263.424C333,213.008,291.992,172,241.584,172z M241.584,338.832c-41.584,0-75.416-33.832-75.416-75.416
		S200,188,241.584,188S317,221.832,317,263.424S283.168,338.832,241.584,338.832z"/>
	<path style="fill:#4D4D4D;" d="M241.584,210c-29.456,0-53.416,23.968-53.416,53.424s23.968,53.416,53.416,53.416
		S295,292.88,295,263.424S271.032,210,241.584,210z M241.584,300.832c-20.632,0-37.416-16.784-37.416-37.416
		s16.784-37.424,37.416-37.424S279,242.784,279,263.416S262.216,300.832,241.584,300.832z"/>
	<path style="fill:#4D4D4D;" d="M241.584,239c-4.416,0-8,3.576-8,8s3.584,8,8,8c4.64,0,8.416,3.784,8.416,8.424
		s-3.776,8.416-8.416,8.416c-4.416,0-8,3.576-8,8s3.584,8,8,8c13.464,0,24.416-10.952,24.416-24.416
		C266,249.952,255.048,239,241.584,239z"/>
	<circle style="fill:#4D4D4D;" cx="336" cy="335.928" r="7.992"/>
	<path style="fill:#4D4D4D;" d="M120,328H64c-4.416,0-8,3.576-8,8s3.584,8,8,8h56c4.416,0,8-3.576,8-8S124.416,328,120,328z"/>
	<path style="fill:#4D4D4D;" d="M424,224h-48c-0.432,0-0.824,0.104-1.248,0.128c-0.424-0.024-0.824-0.128-1.248-0.128
		c-13.232,0-24,10.768-24,24s10.768,24,24,24c0.432,0,0.824-0.104,1.248-0.128c0.424,0.024,0.816,0.128,1.248,0.128h48
		c13.232,0,24-10.768,24-24S437.232,224,424,224z M374.752,255.744C370.96,255.128,368,251.968,368,248s2.96-7.128,6.752-7.744
		c3.792,0.624,6.752,3.776,6.752,7.744S378.544,255.128,374.752,255.744z M424,256h-27.976c0.896-2.512,1.472-5.184,1.472-8
		s-0.576-5.488-1.472-8H424c4.408,0,8,3.584,8,8S428.408,256,424,256z"/>
</g>
<g>
</g>
<g>
</g>
<g>
</g>
<g>
</g>
<g>
</g>
<g>
</g>
<g>
</g>
<g>
</g>
<g>
</g>
<g>
</g>
<g>
</g>
<g>
</g>
<g>
</g>
<g>
</g>
<g>
</g>
</svg>
