<?xml version="1.0" encoding="iso-8859-1"?>
<!-- Generator: Adobe Illustrator 19.0.0, SVG Export Plug-In . SVG Version: 6.00 Build 0)  -->
<svg version="1.1" id="Layer_1" xmlns="http://www.w3.org/2000/svg" xmlns:xlink="http://www.w3.org/1999/xlink" x="0px" y="0px"
	 viewBox="0 0 485.775 485.775" style="enable-background:new 0 0 485.775 485.775;" xml:space="preserve">
<g>
	<path style="fill:#F5B945;" d="M133.003,238.394L31.179,136.57l16.12-16.12c4.032-4.032,9.904-5.616,15.408-4.152l114.216,30.256
		L133.003,238.394z"/>
	<path style="fill:#F5B945;" d="M76.435,227.082L76.435,227.082c-6.248-6.248-6.248-16.376,0-22.624l11.312-11.312l22.624,22.624
		l-11.312,11.312C92.819,233.33,82.683,233.33,76.435,227.082z"/>
</g>
<path style="fill:#4D4D4D;" d="M184.195,143.202c-1-2.16-2.912-3.768-5.216-4.376L64.747,108.57
	c-8.208-2.176-17.08,0.208-23.104,6.232l-16.12,16.12c-3.128,3.128-3.128,8.184,0,11.312l50.912,50.912l-5.656,5.656
	c-9.36,9.36-9.36,24.576,0,33.936c4.528,4.528,10.552,7.032,16.968,7.032c6.408,0,12.44-2.496,16.968-7.032l5.656-5.656
	l16.968,16.968c1.512,1.512,3.552,2.344,5.656,2.344c0.448,0,0.896-0.04,1.352-0.12c2.552-0.44,4.744-2.088,5.864-4.432
	l43.928-91.832C185.171,147.866,185.187,145.362,184.195,143.202z M93.411,221.426c-3.04,3.024-8.296,3.032-11.304,0
	c-0.008,0-0.008,0-0.008,0c-1.504-1.512-2.344-3.52-2.344-5.656s0.832-4.144,2.344-5.656l5.656-5.656l11.312,11.312L93.411,221.426z
	 M130.667,224.746l-14.632-14.632L93.411,187.49l-50.912-50.912l10.464-10.464c2.008-2.008,4.952-2.824,7.704-2.08l104.888,27.784
	L130.667,224.746z"/>
<g>
	<path style="fill:#F5B945;" d="M246.139,351.53l101.824,101.824l16.12-16.12c4.032-4.032,5.616-9.904,4.152-15.408L337.979,307.61
		L246.139,351.53z"/>
	<path style="fill:#F5B945;" d="M257.459,408.106L257.459,408.106c-6.248-6.248-6.248-16.376,0-22.624l11.312-11.312l22.624,22.624
		l-11.312,11.312C273.835,414.354,263.707,414.354,257.459,408.106z"/>
</g>
<path style="fill:#4D4D4D;" d="M375.971,419.786L345.723,305.57c-0.608-2.304-2.216-4.216-4.376-5.216
	c-2.168-0.992-4.656-0.984-6.816,0.048l-91.84,43.92c-2.344,1.128-3.992,3.312-4.432,5.864c-0.44,2.56,0.392,5.168,2.224,7.008
	l16.968,16.968l-5.656,5.656c-9.36,9.36-9.36,24.584,0,33.944c0,0,0,0,0,0.008c4.68,4.672,10.832,7.008,16.968,7.008
	c6.152,0,12.296-2.336,16.968-7.016l5.664-5.664l50.912,50.912c1.56,1.56,3.608,2.344,5.656,2.344s4.096-0.784,5.656-2.344
	l16.12-16.12C375.771,436.874,378.147,428.01,375.971,419.786z M274.427,402.45c-3.104,3.104-8.176,3.12-11.312,0
	c-3.12-3.128-3.12-8.2,0-11.32l5.656-5.656l11.32,11.32L274.427,402.45z M358.427,431.578l-9.84,10.464l-50.288-50.904v-0.008
	l-8.232-7.608l-29.96-29.648l72.776-34.872l27.696,104.888C361.307,426.618,360.435,429.578,358.427,431.578z"/>
<path style="fill:#FFFFFF;" d="M247.571,352.962c52.848-15.032,99.896-39.952,141.032-81.08
	c61.76-61.76,91.952-141.856,88.968-216.832c-0.984-24.656-20.96-44.632-45.616-45.608c-74.992-2.968-155.136,27.272-216.888,89.024
	c-41.128,41.128-65.984,88.12-81.024,140.968L247.571,352.962z"/>
<path style="fill:#4D4D4D;" d="M247.571,360.962c-2.096,0-4.136-0.824-5.656-2.344L128.395,245.09
	c-2.056-2.056-2.832-5.056-2.04-7.84c16.416-57.72,43.584-104.96,83.056-144.44c61.24-61.24,142.432-94.576,222.864-91.36
	c28.736,1.136,52.144,24.536,53.288,53.28c3.2,80.376-30.08,161.584-91.304,222.816c-39.52,39.512-86.792,66.704-144.496,83.12
	C249.043,360.866,248.307,360.962,247.571,360.962z M143.051,237.122l106.832,106.84c52.976-15.768,96.544-41.224,133.064-77.736
	c58.08-58.08,89.656-134.936,86.632-210.856c-0.824-20.464-17.488-37.128-37.944-37.936c-76.04-3.032-152.824,28.592-210.912,86.688
	C184.259,140.586,158.819,184.146,143.051,237.122z"/>
<path style="fill:#E66032;" d="M247.571,352.962c52.848-15.032,99.896-39.952,141.032-81.08
	c61.76-61.76,91.952-141.856,88.968-216.832c-0.984-24.656-20.96-44.632-45.616-45.608c-74.992-2.968-155.136,27.272-216.888,89.024
	c-41.128,41.128-65.984,88.12-81.024,140.968L247.571,352.962z"/>
<g>
	<path style="fill:#F5B945;" d="M180.939,139.25c-11.296,16.072-20.792,32.896-28.72,50.48l145.056,145.056
		c17.576-7.936,34.4-17.432,50.472-28.72L180.939,139.25z"/>
	<path style="fill:#F5B945;" d="M212.203,362.85l-90.512-90.512c-6.248-6.248-6.248-16.376,0-22.624l11.312-11.312L246.139,351.53
		l-11.312,11.312C228.579,369.098,218.451,369.098,212.203,362.85z"/>
	<ellipse style="fill:#F5B945;" cx="345.139" cy="141.763" rx="52.999" ry="52.999"/>
	<ellipse style="fill:#F5B945;" cx="424.325" cy="62.564" rx="19" ry="19"/>
</g>
<g>
	<path style="fill:#4D4D4D;" d="M485.563,54.73c-1.152-28.744-24.552-52.152-53.288-53.28c-80.44-3.216-161.624,30.12-222.864,91.36
		c-13.024,13.024-24.576,26.992-34.984,41.808c-0.008,0.016-0.024,0.016-0.032,0.032c-0.056,0.08-0.112,0.168-0.168,0.248
		c-2.68,3.824-5.272,7.712-7.776,11.656c-0.304,0.472-0.592,0.96-0.888,1.432c-7.312,11.656-13.896,23.872-19.776,36.688
		c-0.272,0.592-0.576,1.176-0.848,1.768c-0.04,0.088-0.04,0.176-0.072,0.264c-6.52,14.456-12.192,29.64-16.968,45.672
		c-0.168,0.144-0.384,0.2-0.544,0.36l-11.312,11.312c-9.36,9.36-9.36,24.584,0,33.944l90.496,90.512
		c4.68,4.68,10.832,7.024,16.968,7.024c6.152,0,12.296-2.344,16.976-7.024l7.616-7.616c0.56-0.04,1.112-0.08,1.664-0.232
		c17.888-5.088,34.664-11.344,50.624-18.544c0.056-0.024,0.128-0.016,0.184-0.04c0.552-0.248,1.088-0.536,1.64-0.784
		c12.968-5.944,25.328-12.616,37.112-20.024c0.336-0.208,0.672-0.416,1.008-0.624c4.024-2.552,7.984-5.192,11.88-7.928
		c0.048-0.032,0.104-0.064,0.152-0.104c0.008-0.008,0.008-0.016,0.016-0.024c14.84-10.416,28.832-22,41.888-35.048
		C455.483,216.314,488.771,135.106,485.563,54.73z M182.131,151.746l153.128,153.136c-5.752,3.76-11.656,7.344-17.696,10.728
		c-0.032,0.016-0.072,0.04-0.104,0.056c-5.84,3.264-11.816,6.336-17.888,9.224c-0.2,0.096-0.4,0.184-0.6,0.28l-137.12-137.12
		c0.12-0.256,0.232-0.512,0.352-0.768c2.816-5.92,5.816-11.744,8.992-17.448c0.096-0.168,0.184-0.344,0.28-0.512
		C174.835,163.322,178.387,157.458,182.131,151.746z M154.907,203.722l128.384,128.384c-10.728,4.4-21.8,8.4-33.4,11.856
		l-106.84-106.84C146.507,225.522,150.507,214.45,154.907,203.722z M229.171,357.194c-3.12,3.12-8.184,3.136-11.32,0l-90.504-90.512
		c-3.12-3.128-3.12-8.192,0-11.32l5.656-5.656l101.832,101.832L229.171,357.194z M348.603,295.602l-157.2-157.208
		c8.872-12.056,18.56-23.52,29.32-34.28c58.088-58.088,134.872-89.712,210.912-86.68c20.464,0.816,37.128,17.48,37.944,37.936
		c3.024,75.92-28.552,152.784-86.632,210.856C372.163,277.01,360.683,286.714,348.603,295.602z"/>
	<path style="fill:#4D4D4D;" d="M345.131,80.754c-16.288,0-31.608,6.352-43.136,17.872c-23.784,23.784-23.784,62.48,0,86.264
		c11.888,11.888,27.512,17.832,43.136,17.832s31.24-5.944,43.136-17.832c11.52-11.52,17.864-26.84,17.864-43.136
		s-6.344-31.616-17.864-43.136C376.755,87.106,361.435,80.754,345.131,80.754z M376.955,173.578
		c-17.544,17.544-46.096,17.544-63.64,0c-17.536-17.544-17.536-46.104,0-63.64c8.496-8.496,19.808-13.184,31.824-13.184
		c12.024,0,23.32,4.688,31.824,13.184s13.176,19.8,13.176,31.824C390.131,153.778,385.459,165.082,376.955,173.578z"/>
	<path style="fill:#4D4D4D;" d="M357.155,118.426c-3.128,3.128-3.128,8.184,0,11.312c3.208,3.208,4.984,7.488,4.984,12.024
		s-1.776,8.808-4.984,12.016c-6.424,6.424-17.616,6.424-24.04,0c-3.128-3.128-8.184-3.128-11.312,0
		c-3.128,3.12-3.128,8.184,0,11.312c6.224,6.232,14.512,9.672,23.328,9.672s17.104-3.44,23.336-9.672
		c6.232-6.224,9.672-14.512,9.672-23.328s-3.44-17.104-9.672-23.336C365.347,115.298,360.283,115.298,357.155,118.426z"/>
	<path style="fill:#4D4D4D;" d="M405.243,43.474c-10.52,10.52-10.52,27.656,0,38.176c5.096,5.104,11.872,7.912,19.088,7.912
		s13.992-2.816,19.096-7.912c10.52-10.52,10.52-27.656,0-38.176C433.219,33.266,415.435,33.266,405.243,43.474z M432.115,70.338
		c-4.16,4.16-11.4,4.16-15.552,0c-2.08-2.08-3.216-4.84-3.216-7.776s1.144-5.704,3.216-7.784s4.832-3.216,7.776-3.216
		s5.704,1.144,7.784,3.216s3.216,4.848,3.216,7.792C435.339,65.498,434.187,68.258,432.115,70.338z"/>
</g>
<path style="fill:#E66032;" d="M54.163,271.986c-6.248,6.248-39.008,28.872-45.256,22.624s16.376-39.008,22.624-45.256
	c6.248-6.248,16.376-6.248,22.624,0C60.411,255.602,60.411,265.738,54.163,271.986z"/>
<path style="fill:#4D4D4D;" d="M12.027,303.514c-3.472,0-6.496-0.952-8.776-3.24c-14.104-14.104,22.224-56.168,22.624-56.568
	c9.368-9.368,24.592-9.352,33.944,0c9.352,9.36,9.352,24.584,0.008,33.944c-0.008,0-0.008,0-0.008,0.008
	C59.483,277.978,29.891,303.514,12.027,303.514z M42.851,252.666c-2.056,0-4.104,0.784-5.664,2.344
	c-5.296,5.296-16.224,22.08-20.032,31.344c9.264-3.8,26.04-14.72,31.344-20.024l0,0c3.128-3.12,3.128-8.2,0-11.32
	C46.947,253.45,44.899,252.666,42.851,252.666z M54.163,270.746h0.08H54.163z"/>
<path style="fill:#E66032;" d="M235.179,453.002c-6.248,6.248-39.008,28.872-45.256,22.624
	c-6.248-6.248,16.376-39.008,22.624-45.256c6.248-6.248,16.376-6.248,22.624,0C241.427,436.626,241.427,446.754,235.179,453.002z"/>
<path style="fill:#4D4D4D;" d="M193.051,484.538c-3.464,0-6.496-0.96-8.784-3.248c-14.112-14.128,22.24-56.168,22.632-56.568
	c9.352-9.336,24.568-9.36,33.936,0.008c4.528,4.52,7.032,10.552,7.032,16.968c0,6.408-2.496,12.44-7.032,16.968
	C240.507,458.994,210.931,484.538,193.051,484.538z M223.867,433.69c-2.136,0-4.144,0.832-5.656,2.344
	c-5.296,5.296-16.232,22.072-20.032,31.344c9.264-3.808,26.048-14.736,31.344-20.032c1.504-1.512,2.344-3.52,2.344-5.656
	c0-2.144-0.832-4.144-2.344-5.648C228.011,434.53,226.003,433.69,223.867,433.69z"/>
<path style="fill:#E66032;" d="M112.379,344.818c-10.28,10.28-64.2,47.528-74.48,37.24c-10.28-10.28,26.96-64.2,37.24-74.48
	s26.96-10.28,37.24,0S122.667,334.53,112.379,344.818z"/>
<path style="fill:#4D4D4D;" d="M43.211,391.666c-4.432,0-8.192-1.176-10.968-3.952c-7.696-7.688-4.72-22.16,9.64-46.912
	c9.632-16.608,21.832-33.12,27.6-38.88c13.376-13.392,35.168-13.392,48.552,0c13.392,13.384,13.392,35.168,0,48.552l0,0
	C117.515,351.002,69.147,391.666,43.211,391.666z M93.763,307.874c-4.696,0-9.392,1.792-12.96,5.36
	c-11.688,11.68-36.424,51.472-36.76,62.68c11.208-0.344,51-25.072,62.688-36.752c7.152-7.152,7.152-18.784,0-25.928
	C103.147,309.658,98.459,307.874,93.763,307.874z M112.387,342.746h0.08H112.387z"/>
<path style="fill:#E66032;" d="M177.763,409.898c-10.2,10.2-63.688,47.152-73.896,36.944s26.744-63.688,36.944-73.896
	c10.2-10.2,26.744-10.2,36.944,0C187.963,383.154,187.963,399.698,177.763,409.898z"/>
<path style="fill:#4D4D4D;" d="M109.131,456.442c-4.408,0-8.168-1.168-10.92-3.936c-7.656-7.656-4.704-22.032,9.552-46.616
	c9.56-16.488,21.664-32.864,27.392-38.584c13.304-13.32,34.952-13.304,48.256,0c6.448,6.44,10,15.008,10,24.128
	s-3.552,17.688-10,24.136C182.891,416.082,134.915,456.442,109.131,456.442z M159.283,373.314c-4.64,0-9.28,1.768-12.816,5.296
	c-11.544,11.536-36.008,50.856-36.44,62.072c11.192-0.432,50.52-24.896,62.072-36.44c3.424-3.424,5.312-7.976,5.312-12.824
	s-1.888-9.392-5.312-12.816C168.571,375.082,163.931,373.314,159.283,373.314z"/>
<g>
</g>
<g>
</g>
<g>
</g>
<g>
</g>
<g>
</g>
<g>
</g>
<g>
</g>
<g>
</g>
<g>
</g>
<g>
</g>
<g>
</g>
<g>
</g>
<g>
</g>
<g>
</g>
<g>
</g>
</svg>
